<svg width="11" height="11" viewBox="0 0 11 11" fill="none" xmlns="http://www.w3.org/2000/svg">
<path d="M0 2.0625C0 1.68287 0.351853 1.375 0.785714 1.375H10.2143C10.6489 1.375 11 1.68287 11 2.0625C11 2.44277 10.6489 2.75 10.2143 2.75H0.785714C0.351853 2.75 0 2.44277 0 2.0625ZM0 5.5C0 5.11973 0.351853 4.8125 0.785714 4.8125H10.2143C10.6489 4.8125 11 5.11973 11 5.5C11 5.88027 10.6489 6.1875 10.2143 6.1875H0.785714C0.351853 6.1875 0 5.88027 0 5.5ZM10.2143 9.625H0.785714C0.351853 9.625 0 9.31777 0 8.9375C0 8.55723 0.351853 8.25 0.785714 8.25H10.2143C10.6489 8.25 11 8.55723 11 8.9375C11 9.31777 10.6489 9.625 10.2143 9.625Z" fill="black"/>
</svg>
